<svg width="386" height="40" viewBox="0 0 386 40" fill="none" xmlns="http://www.w3.org/2000/svg">
<path d="M16.52 4.91999C20.808 4.91999 24.504 6.27999 27.608 8.99999L23.624 13.176C22.44 12.28 21.336 11.64 20.312 11.256C19.32 10.84 18.168 10.632 16.856 10.632C14.392 10.632 12.424 11.608 10.952 13.56C9.47999 15.48 8.74399 18.408 8.74399 22.344C8.74399 26.6 9.30398 29.624 10.424 31.416C11.544 33.176 13.288 34.056 15.656 34.056C17.32 34.056 18.824 33.688 20.168 32.952V25.416H15.848L15.08 19.848H27.8V36.312C26.072 37.432 24.168 38.296 22.088 38.904C20.008 39.512 17.928 39.816 15.848 39.816C10.792 39.816 6.98398 38.344 4.42398 35.4C1.86398 32.424 0.583984 28.072 0.583984 22.344C0.583984 18.696 1.27198 15.56 2.64798 12.936C4.05598 10.312 5.95998 8.32799 8.35998 6.98399C10.792 5.60799 13.512 4.91999 16.52 4.91999Z" fill="black"/>
<path d="M54.4175 39H47.8415L47.5055 35.784C45.6495 38.472 43.0735 39.816 39.7775 39.816C37.4415 39.816 35.6655 39.112 34.4495 37.704C33.2655 36.296 32.6735 34.328 32.6735 31.8V13.512H40.2575V30.84C40.2575 32.088 40.4495 32.968 40.8335 33.48C41.2495 33.96 41.8735 34.2 42.7055 34.2C44.3055 34.2 45.6815 33.208 46.8335 31.224V13.512H54.4175V39Z" fill="black"/>
<path d="M67.9662 13.512V39H60.3822V13.512H67.9662ZM64.1262 0.071991C65.4382 0.071991 66.5102 0.487991 67.3422 1.31999C68.2062 2.11999 68.6382 3.14399 68.6382 4.39199C68.6382 5.63999 68.2062 6.67999 67.3422 7.51199C66.5102 8.31199 65.4382 8.71199 64.1262 8.71199C62.8142 8.71199 61.7422 8.31199 60.9102 7.51199C60.0782 6.67999 59.6622 5.63999 59.6622 4.39199C59.6622 3.14399 60.0782 2.11999 60.9102 1.31999C61.7422 0.487991 62.8142 0.071991 64.1262 0.071991Z" fill="black"/>
<path d="M80.6971 39.816C78.4891 39.816 76.7611 39.192 75.5131 37.944C74.2971 36.664 73.6891 34.856 73.6891 32.52V3.38399L81.2731 2.56799V32.232C81.2731 33.288 81.7051 33.816 82.5691 33.816C83.0171 33.816 83.4331 33.736 83.8171 33.576L85.3051 38.952C83.9291 39.528 82.3931 39.816 80.6971 39.816Z" fill="black"/>
<path d="M103.107 12.696C105.315 12.696 107.043 13.368 108.291 14.712C109.539 16.056 110.163 17.944 110.163 20.376V39H102.579V21.672C102.579 20.392 102.371 19.512 101.955 19.032C101.539 18.52 100.947 18.264 100.179 18.264C98.6431 18.264 97.1711 19.352 95.7631 21.528V39H88.1791V3.38399L95.7631 2.61599V16.248C96.8191 15.064 97.9391 14.184 99.1231 13.608C100.307 13 101.635 12.696 103.107 12.696Z" fill="black"/>
<path d="M138.106 25.752C138.106 26.808 138.058 27.72 137.962 28.488H122.17C122.426 30.632 123.034 32.136 123.994 33C124.954 33.864 126.282 34.296 127.978 34.296C129.002 34.296 129.994 34.12 130.954 33.768C131.914 33.384 132.954 32.808 134.074 32.04L137.194 36.264C134.218 38.632 130.906 39.816 127.258 39.816C123.13 39.816 119.962 38.6 117.754 36.168C115.546 33.736 114.442 30.472 114.442 26.376C114.442 23.784 114.906 21.464 115.834 19.416C116.762 17.336 118.122 15.704 119.914 14.52C121.706 13.304 123.85 12.696 126.346 12.696C130.026 12.696 132.906 13.848 134.986 16.152C137.066 18.456 138.106 21.656 138.106 25.752ZM130.666 23.592C130.602 19.688 129.226 17.736 126.538 17.736C125.226 17.736 124.202 18.216 123.466 19.176C122.762 20.136 122.33 21.72 122.17 23.928H130.666V23.592Z" fill="black"/>
<path d="M156.191 12.792C157.119 12.792 157.967 12.904 158.735 13.128L157.535 20.472C156.575 20.248 155.807 20.136 155.231 20.136C153.727 20.136 152.575 20.664 151.775 21.72C151.007 22.744 150.399 24.296 149.951 26.376V39H142.367V13.512H148.991L149.615 18.456C150.191 16.696 151.055 15.32 152.207 14.328C153.391 13.304 154.719 12.792 156.191 12.792Z" fill="black"/>
<path d="M189.808 12.696C191.824 12.696 193.44 13.384 194.656 14.76C195.872 16.104 196.48 17.976 196.48 20.376V39H188.896V21.672C188.896 19.4 188.176 18.264 186.736 18.264C185.936 18.264 185.232 18.536 184.624 19.08C184.016 19.624 183.424 20.456 182.848 21.576V39H175.264V21.672C175.264 19.4 174.544 18.264 173.104 18.264C172.336 18.264 171.632 18.552 170.992 19.128C170.384 19.672 169.792 20.488 169.216 21.576V39H161.632V13.512H168.256L168.784 16.488C169.776 15.208 170.864 14.264 172.048 13.656C173.264 13.016 174.64 12.696 176.176 12.696C177.616 12.696 178.848 13.048 179.872 13.752C180.928 14.456 181.696 15.448 182.176 16.728C183.2 15.352 184.32 14.344 185.536 13.704C186.784 13.032 188.208 12.696 189.808 12.696Z" fill="black"/>
<path d="M224.403 25.752C224.403 26.808 224.355 27.72 224.259 28.488H208.467C208.723 30.632 209.331 32.136 210.291 33C211.251 33.864 212.579 34.296 214.275 34.296C215.299 34.296 216.291 34.12 217.251 33.768C218.211 33.384 219.251 32.808 220.371 32.04L223.491 36.264C220.515 38.632 217.203 39.816 213.555 39.816C209.427 39.816 206.259 38.6 204.051 36.168C201.843 33.736 200.739 30.472 200.739 26.376C200.739 23.784 201.203 21.464 202.131 19.416C203.059 17.336 204.419 15.704 206.211 14.52C208.003 13.304 210.147 12.696 212.643 12.696C216.323 12.696 219.203 13.848 221.283 16.152C223.363 18.456 224.403 21.656 224.403 25.752ZM216.963 23.592C216.899 19.688 215.523 17.736 212.835 17.736C211.523 17.736 210.499 18.216 209.763 19.176C209.059 20.136 208.627 21.72 208.467 23.928H216.963V23.592Z" fill="black"/>
<path d="M254.598 4.91999C258.886 4.91999 262.582 6.27999 265.686 8.99999L261.702 13.176C260.518 12.28 259.414 11.64 258.39 11.256C257.398 10.84 256.246 10.632 254.934 10.632C252.47 10.632 250.502 11.608 249.03 13.56C247.558 15.48 246.822 18.408 246.822 22.344C246.822 26.6 247.382 29.624 248.502 31.416C249.622 33.176 251.366 34.056 253.734 34.056C255.398 34.056 256.902 33.688 258.246 32.952V25.416H253.926L253.158 19.848H265.878V36.312C264.15 37.432 262.246 38.296 260.166 38.904C258.086 39.512 256.006 39.816 253.926 39.816C248.87 39.816 245.062 38.344 242.502 35.4C239.942 32.424 238.662 28.072 238.662 22.344C238.662 18.696 239.35 15.56 240.726 12.936C242.134 10.312 244.038 8.32799 246.438 6.98399C248.87 5.60799 251.59 4.91999 254.598 4.91999Z" fill="black"/>
<path d="M282.032 12.696C285.936 12.696 288.992 13.896 291.2 16.296C293.408 18.664 294.512 21.992 294.512 26.28C294.512 29 294 31.384 292.976 33.432C291.984 35.448 290.544 37.016 288.656 38.136C286.8 39.256 284.592 39.816 282.032 39.816C278.16 39.816 275.104 38.632 272.864 36.264C270.656 33.864 269.552 30.52 269.552 26.232C269.552 23.512 270.048 21.144 271.04 19.128C272.064 17.08 273.504 15.496 275.36 14.376C277.248 13.256 279.472 12.696 282.032 12.696ZM282.032 18.264C280.496 18.264 279.344 18.92 278.576 20.232C277.808 21.512 277.424 23.512 277.424 26.232C277.424 29.016 277.792 31.048 278.528 32.328C279.296 33.608 280.464 34.248 282.032 34.248C283.568 34.248 284.72 33.608 285.488 32.328C286.256 31.016 286.64 29 286.64 26.28C286.64 23.496 286.256 21.464 285.488 20.184C284.752 18.904 283.6 18.264 282.032 18.264Z" fill="black"/>
<path d="M327.199 12.696C329.215 12.696 330.831 13.384 332.047 14.76C333.263 16.104 333.871 17.976 333.871 20.376V39H326.287V21.672C326.287 19.4 325.567 18.264 324.127 18.264C323.327 18.264 322.623 18.536 322.015 19.08C321.407 19.624 320.815 20.456 320.239 21.576V39H312.655V21.672C312.655 19.4 311.935 18.264 310.495 18.264C309.727 18.264 309.023 18.552 308.383 19.128C307.775 19.672 307.183 20.488 306.607 21.576V39H299.023V13.512H305.647L306.175 16.488C307.167 15.208 308.255 14.264 309.439 13.656C310.655 13.016 312.031 12.696 313.567 12.696C315.007 12.696 316.239 13.048 317.263 13.752C318.319 14.456 319.087 15.448 319.567 16.728C320.591 15.352 321.711 14.344 322.927 13.704C324.175 13.032 325.599 12.696 327.199 12.696Z" fill="black"/>
<path d="M361.794 25.752C361.794 26.808 361.746 27.72 361.65 28.488H345.858C346.114 30.632 346.722 32.136 347.682 33C348.642 33.864 349.97 34.296 351.666 34.296C352.69 34.296 353.682 34.12 354.642 33.768C355.602 33.384 356.642 32.808 357.762 32.04L360.882 36.264C357.906 38.632 354.594 39.816 350.946 39.816C346.818 39.816 343.65 38.6 341.442 36.168C339.234 33.736 338.13 30.472 338.13 26.376C338.13 23.784 338.594 21.464 339.522 19.416C340.45 17.336 341.81 15.704 343.602 14.52C345.394 13.304 347.538 12.696 350.034 12.696C353.714 12.696 356.594 13.848 358.674 16.152C360.754 18.456 361.794 21.656 361.794 25.752ZM354.354 23.592C354.29 19.688 352.914 17.736 350.226 17.736C348.914 17.736 347.89 18.216 347.154 19.176C346.45 20.136 346.018 21.72 345.858 23.928H354.354V23.592Z" fill="black"/>
<path d="M375.03 12.696C376.854 12.696 378.566 12.968 380.166 13.512C381.766 14.056 383.174 14.824 384.39 15.816L381.606 20.088C379.526 18.776 377.43 18.12 375.318 18.12C374.326 18.12 373.558 18.296 373.014 18.648C372.502 18.968 372.246 19.432 372.246 20.04C372.246 20.52 372.358 20.92 372.582 21.24C372.838 21.528 373.334 21.832 374.07 22.152C374.806 22.472 375.942 22.856 377.478 23.304C380.134 24.072 382.102 25.08 383.382 26.328C384.694 27.544 385.35 29.24 385.35 31.416C385.35 33.144 384.854 34.648 383.862 35.928C382.87 37.176 381.51 38.136 379.782 38.808C378.054 39.48 376.134 39.816 374.022 39.816C371.878 39.816 369.878 39.48 368.022 38.808C366.198 38.136 364.646 37.208 363.366 36.024L367.062 31.896C369.206 33.56 371.462 34.392 373.83 34.392C374.982 34.392 375.878 34.184 376.518 33.768C377.19 33.352 377.526 32.76 377.526 31.992C377.526 31.384 377.398 30.904 377.142 30.552C376.886 30.2 376.39 29.88 375.654 29.592C374.918 29.272 373.75 28.888 372.15 28.44C369.622 27.704 367.734 26.68 366.486 25.368C365.238 24.056 364.614 22.424 364.614 20.472C364.614 19 365.03 17.688 365.862 16.536C366.726 15.352 367.942 14.424 369.51 13.752C371.11 13.048 372.95 12.696 375.03 12.696Z" fill="black"/>
</svg>
